<svg xmlns="http://www.w3.org/2000/svg" width="96" height="96" viewBox="0 0 48 48" role="img" aria-label="Confirming" class="grabado estado-tiene"><title>Confirming</title><defs><clipPath id="gr5c"><path d="M20.5 7.5H42.5V33.5H20.5Z"/><path d="M24.60 32.00 L26.97 32.75 L26.68 34.61 L24.19 34.61 A8.6 8.6 0 0 1 23.23 36.65 L23.23 36.65 L24.82 38.57 L23.58 39.98 L21.48 38.63 A8.6 8.6 0 0 1 19.57 39.82 L19.57 39.82 L19.87 42.30 L18.06 42.81 L17.03 40.54 A8.6 8.6 0 0 1 14.78 40.51 L14.78 40.51 L13.69 42.76 L11.89 42.20 L12.25 39.74 A8.6 8.6 0 0 1 10.37 38.50 L10.37 38.50 L8.24 39.80 L7.03 38.36 L8.66 36.48 A8.6 8.6 0 0 1 7.75 34.42 L7.75 34.42 L5.26 34.37 L5.01 32.50 L7.40 31.80 A8.6 8.6 0 0 1 7.75 29.58 L7.75 29.58 L5.68 28.19 L6.48 26.48 L8.87 27.19 A8.6 8.6 0 0 1 10.37 25.50 L10.37 25.50 L9.38 23.21 L10.98 22.21 L12.61 24.10 A8.6 8.6 0 0 1 14.78 23.49 L14.78 23.49 L15.18 21.03 L17.07 21.05 L17.42 23.52 A8.6 8.6 0 0 1 19.57 24.18 L19.57 24.18 L21.24 22.33 L22.82 23.37 L21.78 25.63 A8.6 8.6 0 0 1 23.23 27.35 L23.23 27.35 L25.64 26.70 L26.40 28.42 L24.30 29.77 A8.6 8.6 0 0 1 24.60 32.00 Z"/></clipPath><linearGradient id="gr5g" x1="0" y1="0" x2="1" y2="1"><stop offset="0.45" stop-color="#fff" stop-opacity="0"/><stop offset="0.62" stop-color="#fff" stop-opacity="1"/></linearGradient><mask id="gr5m" maskUnits="userSpaceOnUse" x="0" y="0" width="48" height="48"><rect width="48" height="48" fill="url(#gr5g)"/></mask></defs><g clip-path="url(#gr5c)" fill="#4a6584"><circle class="grano" cx="39.19" cy="2.00" r="0.43"/><circle class="grano" cx="42.45" cy="1.58" r="0.45"/><circle class="grano" cx="46.16" cy="2.08" r="0.38"/><circle class="grano" cx="45.71" cy="3.15" r="0.37"/><circle class="grano" cx="31.97" cy="4.44" r="0.40"/><circle class="grano" cx="32.79" cy="4.79" r="0.43"/><circle class="grano" cx="39.42" cy="4.72" r="0.39"/><circle class="grano" cx="25.32" cy="5.31" r="0.29"/><circle class="grano" cx="38.80" cy="6.13" r="0.34"/><circle class="grano" cx="39.93" cy="5.29" r="0.43"/><circle class="grano" cx="40.23" cy="5.28" r="0.31"/><circle class="grano" cx="44.50" cy="5.44" r="0.36"/><circle class="grano" cx="28.17" cy="7.36" r="0.41"/><circle class="grano" cx="31.73" cy="6.88" r="0.31"/><circle class="grano" cx="36.01" cy="6.50" r="0.30"/><circle class="grano" cx="37.06" cy="7.38" r="0.28"/><circle class="grano" cx="40.42" cy="6.75" r="0.33"/><circle class="grano" cx="46.31" cy="6.96" r="0.45"/><circle class="grano" cx="28.26" cy="8.29" r="0.27"/><circle class="grano" cx="29.70" cy="8.60" r="0.34"/><circle class="grano" cx="45.46" cy="8.38" r="0.28"/><circle class="grano" cx="35.04" cy="9.69" r="0.44"/><circle class="grano" cx="40.41" cy="9.41" r="0.32"/><circle class="grano" cx="41.69" cy="8.97" r="0.40"/><circle class="grano" cx="43.61" cy="9.22" r="0.38"/><circle class="grano" cx="44.91" cy="9.24" r="0.27"/><circle class="grano" cx="20.43" cy="10.70" r="0.44"/><circle class="grano" cx="27.96" cy="11.18" r="0.31"/><circle class="grano" cx="35.69" cy="11.04" r="0.30"/><circle class="grano" cx="38.22" cy="10.38" r="0.32"/><circle class="grano" cx="40.53" cy="10.29" r="0.43"/><circle class="grano" cx="42.90" cy="10.27" r="0.42"/><circle class="grano" cx="44.06" cy="11.19" r="0.39"/><circle class="grano" cx="45.75" cy="10.37" r="0.29"/><circle class="grano" cx="34.43" cy="11.93" r="0.28"/><circle class="grano" cx="37.82" cy="11.97" r="0.42"/><circle class="grano" cx="42.19" cy="11.60" r="0.28"/><circle class="grano" cx="44.82" cy="12.56" r="0.45"/><circle class="grano" cx="45.65" cy="12.07" r="0.33"/><circle class="grano" cx="20.19" cy="13.04" r="0.41"/><circle class="grano" cx="24.14" cy="13.62" r="0.44"/><circle class="grano" cx="34.51" cy="13.78" r="0.29"/><circle class="grano" cx="38.42" cy="13.42" r="0.41"/><circle class="grano" cx="40.73" cy="13.18" r="0.39"/><circle class="grano" cx="41.81" cy="13.63" r="0.42"/><circle class="grano" cx="43.02" cy="12.70" r="0.40"/><circle class="grano" cx="44.88" cy="13.62" r="0.37"/><circle class="grano" cx="13.13" cy="14.84" r="0.36"/><circle class="grano" cx="19.25" cy="14.31" r="0.33"/><circle class="grano" cx="20.96" cy="14.84" r="0.41"/><circle class="grano" cx="38.11" cy="14.61" r="0.42"/><circle class="grano" cx="41.01" cy="15.03" r="0.28"/><circle class="grano" cx="43.55" cy="14.55" r="0.30"/><circle class="grano" cx="44.60" cy="14.58" r="0.45"/><circle class="grano" cx="20.53" cy="15.83" r="0.41"/><circle class="grano" cx="32.07" cy="15.73" r="0.35"/><circle class="grano" cx="38.99" cy="15.41" r="0.42"/><circle class="grano" cx="40.61" cy="15.43" r="0.40"/><circle class="grano" cx="41.91" cy="15.93" r="0.44"/><circle class="grano" cx="42.89" cy="15.74" r="0.33"/><circle class="grano" cx="44.75" cy="16.11" r="0.27"/><circle class="grano" cx="45.44" cy="15.84" r="0.31"/><circle class="grano" cx="24.75" cy="17.37" r="0.42"/><circle class="grano" cx="25.74" cy="17.46" r="0.40"/><circle class="grano" cx="39.48" cy="16.87" r="0.38"/><circle class="grano" cx="43.56" cy="16.66" r="0.41"/><circle class="grano" cx="45.49" cy="16.88" r="0.27"/><circle class="grano" cx="12.77" cy="18.48" r="0.30"/><circle class="grano" cx="18.26" cy="18.23" r="0.38"/><circle class="grano" cx="24.90" cy="17.81" r="0.35"/><circle class="grano" cx="26.61" cy="18.46" r="0.34"/><circle class="grano" cx="28.64" cy="17.87" r="0.41"/><circle class="grano" cx="32.46" cy="17.86" r="0.39"/><circle class="grano" cx="33.28" cy="18.48" r="0.35"/><circle class="grano" cx="42.28" cy="17.90" r="0.29"/><circle class="grano" cx="43.56" cy="18.79" r="0.32"/><circle class="grano" cx="44.76" cy="18.34" r="0.29"/><circle class="grano" cx="45.60" cy="18.49" r="0.28"/><circle class="grano" cx="11.25" cy="19.22" r="0.31"/><circle class="grano" cx="18.25" cy="19.31" r="0.45"/><circle class="grano" cx="20.42" cy="19.54" r="0.35"/><circle class="grano" cx="29.19" cy="19.97" r="0.40"/><circle class="grano" cx="30.25" cy="19.09" r="0.33"/><circle class="grano" cx="36.07" cy="19.35" r="0.31"/><circle class="grano" cx="36.83" cy="19.47" r="0.39"/><circle class="grano" cx="40.43" cy="20.02" r="0.39"/><circle class="grano" cx="43.43" cy="19.23" r="0.31"/><circle class="grano" cx="15.73" cy="21.07" r="0.37"/><circle class="grano" cx="18.54" cy="20.42" r="0.30"/><circle class="grano" cx="21.00" cy="21.12" r="0.30"/><circle class="grano" cx="23.65" cy="20.90" r="0.40"/><circle class="grano" cx="29.67" cy="20.49" r="0.31"/><circle class="grano" cx="32.51" cy="20.85" r="0.31"/><circle class="grano" cx="33.30" cy="21.19" r="0.31"/><circle class="grano" cx="35.89" cy="21.21" r="0.42"/><circle class="grano" cx="46.29" cy="20.95" r="0.28"/><circle class="grano" cx="10.80" cy="21.73" r="0.38"/><circle class="grano" cx="18.18" cy="22.21" r="0.38"/><circle class="grano" cx="20.38" cy="22.26" r="0.32"/><circle class="grano" cx="26.30" cy="22.06" r="0.40"/><circle class="grano" cx="27.81" cy="22.56" r="0.34"/><circle class="grano" cx="29.32" cy="21.87" r="0.33"/><circle class="grano" cx="34.73" cy="22.45" r="0.33"/><circle class="grano" cx="36.16" cy="21.62" r="0.39"/><circle class="grano" cx="39.70" cy="22.31" r="0.41"/><circle class="grano" cx="41.07" cy="21.46" r="0.40"/><circle class="grano" cx="42.36" cy="22.39" r="0.29"/><circle class="grano" cx="42.77" cy="22.55" r="0.29"/><circle class="grano" cx="44.92" cy="21.71" r="0.30"/><circle class="grano" cx="21.70" cy="23.44" r="0.28"/><circle class="grano" cx="29.47" cy="23.19" r="0.31"/><circle class="grano" cx="33.61" cy="23.32" r="0.45"/><circle class="grano" cx="36.67" cy="23.55" r="0.37"/><circle class="grano" cx="38.79" cy="23.81" r="0.28"/><circle class="grano" cx="41.83" cy="23.60" r="0.30"/><circle class="grano" cx="45.70" cy="23.01" r="0.31"/><circle class="grano" cx="30.81" cy="25.03" r="0.31"/><circle class="grano" cx="31.84" cy="24.24" r="0.43"/><circle class="grano" cx="34.10" cy="24.58" r="0.29"/><circle class="grano" cx="35.94" cy="24.61" r="0.40"/><circle class="grano" cx="36.48" cy="24.04" r="0.41"/><circle class="grano" cx="38.49" cy="24.76" r="0.33"/><circle class="grano" cx="40.71" cy="24.04" r="0.29"/><circle class="grano" cx="43.69" cy="24.75" r="0.29"/><circle class="grano" cx="44.67" cy="24.76" r="0.39"/><circle class="grano" cx="45.83" cy="24.52" r="0.29"/><circle class="grano" cx="19.60" cy="25.65" r="0.42"/><circle class="grano" cx="24.24" cy="25.42" r="0.29"/><circle class="grano" cx="26.83" cy="25.22" r="0.31"/><circle class="grano" cx="28.55" cy="26.09" r="0.44"/><circle class="grano" cx="29.87" cy="26.00" r="0.45"/><circle class="grano" cx="35.76" cy="25.43" r="0.36"/><circle class="grano" cx="37.83" cy="25.19" r="0.39"/><circle class="grano" cx="38.94" cy="25.97" r="0.43"/><circle class="grano" cx="40.38" cy="26.18" r="0.36"/><circle class="grano" cx="42.43" cy="25.44" r="0.31"/><circle class="grano" cx="42.72" cy="25.32" r="0.29"/><circle class="grano" cx="11.18" cy="26.99" r="0.43"/><circle class="grano" cx="13.36" cy="27.38" r="0.34"/><circle class="grano" cx="17.85" cy="26.52" r="0.33"/><circle class="grano" cx="19.32" cy="26.74" r="0.37"/><circle class="grano" cx="21.50" cy="27.14" r="0.39"/><circle class="grano" cx="24.03" cy="27.37" r="0.39"/><circle class="grano" cx="25.52" cy="26.65" r="0.43"/><circle class="grano" cx="29.55" cy="27.09" r="0.29"/><circle class="grano" cx="31.62" cy="27.36" r="0.39"/><circle class="grano" cx="37.70" cy="26.79" r="0.34"/><circle class="grano" cx="40.42" cy="27.47" r="0.30"/><circle class="grano" cx="42.04" cy="26.67" r="0.41"/><circle class="grano" cx="45.98" cy="26.52" r="0.41"/><circle class="grano" cx="2.20" cy="28.69" r="0.30"/><circle class="grano" cx="15.54" cy="28.66" r="0.34"/><circle class="grano" cx="18.75" cy="28.38" r="0.43"/><circle class="grano" cx="21.69" cy="28.75" r="0.31"/><circle class="grano" cx="25.92" cy="28.24" r="0.44"/><circle class="grano" cx="27.40" cy="27.78" r="0.35"/><circle class="grano" cx="29.96" cy="27.79" r="0.43"/><circle class="grano" cx="37.44" cy="28.23" r="0.30"/><circle class="grano" cx="37.95" cy="28.76" r="0.28"/><circle class="grano" cx="40.51" cy="28.11" r="0.31"/><circle class="grano" cx="42.69" cy="27.83" r="0.31"/><circle class="grano" cx="45.56" cy="27.79" r="0.35"/><circle class="grano" cx="5.62" cy="30.00" r="0.40"/><circle class="grano" cx="14.65" cy="29.95" r="0.31"/><circle class="grano" cx="25.50" cy="29.26" r="0.42"/><circle class="grano" cx="29.10" cy="29.01" r="0.28"/><circle class="grano" cx="30.64" cy="29.16" r="0.37"/><circle class="grano" cx="32.37" cy="29.60" r="0.33"/><circle class="grano" cx="34.36" cy="29.86" r="0.40"/><circle class="grano" cx="38.22" cy="29.25" r="0.44"/><circle class="grano" cx="39.93" cy="29.58" r="0.43"/><circle class="grano" cx="41.30" cy="29.02" r="0.35"/><circle class="grano" cx="43.54" cy="29.96" r="0.36"/><circle class="grano" cx="45.68" cy="29.89" r="0.39"/><circle class="grano" cx="4.99" cy="30.47" r="0.37"/><circle class="grano" cx="9.91" cy="30.20" r="0.34"/><circle class="grano" cx="10.71" cy="30.27" r="0.31"/><circle class="grano" cx="20.85" cy="30.64" r="0.34"/><circle class="grano" cx="23.74" cy="30.88" r="0.29"/><circle class="grano" cx="28.81" cy="30.55" r="0.27"/><circle class="grano" cx="32.45" cy="30.47" r="0.37"/><circle class="grano" cx="35.63" cy="30.80" r="0.44"/><circle class="grano" cx="36.80" cy="31.04" r="0.34"/><circle class="grano" cx="39.82" cy="30.50" r="0.45"/><circle class="grano" cx="40.89" cy="31.27" r="0.39"/><circle class="grano" cx="41.65" cy="30.22" r="0.32"/><circle class="grano" cx="2.18" cy="31.55" r="0.43"/><circle class="grano" cx="7.95" cy="32.04" r="0.35"/><circle class="grano" cx="10.70" cy="32.37" r="0.40"/><circle class="grano" cx="13.49" cy="32.29" r="0.28"/><circle class="grano" cx="19.85" cy="31.86" r="0.31"/><circle class="grano" cx="23.94" cy="32.52" r="0.44"/><circle class="grano" cx="25.85" cy="32.22" r="0.33"/><circle class="grano" cx="29.53" cy="31.90" r="0.37"/><circle class="grano" cx="31.02" cy="31.97" r="0.42"/><circle class="grano" cx="32.48" cy="31.72" r="0.37"/><circle class="grano" cx="33.05" cy="32.00" r="0.29"/><circle class="grano" cx="34.44" cy="31.92" r="0.45"/><circle class="grano" cx="35.22" cy="31.72" r="0.36"/><circle class="grano" cx="37.55" cy="32.46" r="0.42"/><circle class="grano" cx="39.58" cy="32.08" r="0.34"/><circle class="grano" cx="40.83" cy="31.45" r="0.33"/><circle class="grano" cx="42.69" cy="32.10" r="0.30"/><circle class="grano" cx="46.04" cy="31.63" r="0.41"/><circle class="grano" cx="10.04" cy="33.37" r="0.34"/><circle class="grano" cx="10.49" cy="33.27" r="0.30"/><circle class="grano" cx="13.21" cy="33.49" r="0.40"/><circle class="grano" cx="14.77" cy="33.45" r="0.31"/><circle class="grano" cx="15.25" cy="32.89" r="0.37"/><circle class="grano" cx="16.60" cy="33.46" r="0.29"/><circle class="grano" cx="17.84" cy="32.90" r="0.43"/><circle class="grano" cx="20.55" cy="33.64" r="0.28"/><circle class="grano" cx="23.39" cy="33.72" r="0.40"/><circle class="grano" cx="24.73" cy="33.63" r="0.40"/><circle class="grano" cx="26.80" cy="33.67" r="0.42"/><circle class="grano" cx="29.78" cy="33.80" r="0.42"/><circle class="grano" cx="32.30" cy="33.01" r="0.33"/><circle class="grano" cx="33.71" cy="33.07" r="0.28"/><circle class="grano" cx="34.83" cy="33.28" r="0.43"/><circle class="grano" cx="39.26" cy="33.22" r="0.44"/><circle class="grano" cx="43.70" cy="33.01" r="0.41"/><circle class="grano" cx="44.73" cy="33.66" r="0.32"/><circle class="grano" cx="46.00" cy="33.07" r="0.37"/><circle class="grano" cx="5.91" cy="34.21" r="0.31"/><circle class="grano" cx="7.88" cy="34.96" r="0.38"/><circle class="grano" cx="10.34" cy="33.97" r="0.38"/><circle class="grano" cx="19.22" cy="34.50" r="0.44"/><circle class="grano" cx="24.53" cy="34.99" r="0.41"/><circle class="grano" cx="25.66" cy="34.41" r="0.33"/><circle class="grano" cx="26.65" cy="34.20" r="0.38"/><circle class="grano" cx="29.69" cy="34.24" r="0.39"/><circle class="grano" cx="31.49" cy="34.77" r="0.44"/><circle class="grano" cx="34.72" cy="33.99" r="0.35"/><circle class="grano" cx="35.89" cy="34.96" r="0.28"/><circle class="grano" cx="37.04" cy="34.36" r="0.43"/><circle class="grano" cx="38.06" cy="34.40" r="0.44"/><circle class="grano" cx="39.97" cy="34.58" r="0.40"/><circle class="grano" cx="41.82" cy="35.03" r="0.29"/><circle class="grano" cx="44.86" cy="34.38" r="0.37"/><circle class="grano" cx="45.98" cy="34.87" r="0.36"/><circle class="grano" cx="4.61" cy="35.20" r="0.35"/><circle class="grano" cx="17.40" cy="36.01" r="0.34"/><circle class="grano" cx="19.65" cy="36.22" r="0.38"/><circle class="grano" cx="21.73" cy="35.33" r="0.30"/><circle class="grano" cx="23.77" cy="35.22" r="0.39"/><circle class="grano" cx="25.05" cy="36.17" r="0.31"/><circle class="grano" cx="26.14" cy="36.08" r="0.37"/><circle class="grano" cx="26.95" cy="35.66" r="0.32"/><circle class="grano" cx="28.20" cy="36.21" r="0.28"/><circle class="grano" cx="29.03" cy="35.60" r="0.36"/><circle class="grano" cx="30.51" cy="36.07" r="0.45"/><circle class="grano" cx="32.82" cy="35.56" r="0.29"/><circle class="grano" cx="34.54" cy="35.45" r="0.37"/><circle class="grano" cx="36.24" cy="35.23" r="0.38"/><circle class="grano" cx="40.05" cy="35.95" r="0.28"/><circle class="grano" cx="40.45" cy="35.62" r="0.37"/><circle class="grano" cx="41.84" cy="35.56" r="0.41"/><circle class="grano" cx="44.52" cy="35.73" r="0.31"/><circle class="grano" cx="46.19" cy="35.59" r="0.34"/><circle class="grano" cx="14.70" cy="37.11" r="0.40"/><circle class="grano" cx="15.67" cy="36.45" r="0.30"/><circle class="grano" cx="16.85" cy="37.45" r="0.43"/><circle class="grano" cx="19.16" cy="36.96" r="0.29"/><circle class="grano" cx="20.22" cy="36.73" r="0.29"/><circle class="grano" cx="22.73" cy="37.54" r="0.34"/><circle class="grano" cx="25.23" cy="37.14" r="0.43"/><circle class="grano" cx="27.75" cy="37.32" r="0.39"/><circle class="grano" cx="29.57" cy="37.07" r="0.42"/><circle class="grano" cx="30.68" cy="37.13" r="0.32"/><circle class="grano" cx="31.58" cy="36.46" r="0.44"/><circle class="grano" cx="32.93" cy="36.63" r="0.43"/><circle class="grano" cx="34.32" cy="36.74" r="0.37"/><circle class="grano" cx="35.84" cy="36.50" r="0.42"/><circle class="grano" cx="38.39" cy="37.22" r="0.31"/><circle class="grano" cx="39.78" cy="37.22" r="0.44"/><circle class="grano" cx="42.71" cy="37.05" r="0.44"/><circle class="grano" cx="44.65" cy="37.07" r="0.30"/><circle class="grano" cx="7.11" cy="38.63" r="0.43"/><circle class="grano" cx="12.85" cy="38.06" r="0.33"/><circle class="grano" cx="17.19" cy="38.35" r="0.30"/><circle class="grano" cx="24.21" cy="37.95" r="0.35"/><circle class="grano" cx="27.96" cy="38.42" r="0.30"/><circle class="grano" cx="29.40" cy="37.96" r="0.28"/><circle class="grano" cx="30.54" cy="37.94" r="0.38"/><circle class="grano" cx="31.45" cy="38.24" r="0.40"/><circle class="grano" cx="34.89" cy="38.15" r="0.35"/><circle class="grano" cx="35.90" cy="38.26" r="0.36"/><circle class="grano" cx="38.31" cy="37.86" r="0.44"/><circle class="grano" cx="39.96" cy="38.32" r="0.40"/><circle class="grano" cx="42.08" cy="38.39" r="0.39"/><circle class="grano" cx="43.30" cy="38.78" r="0.39"/><circle class="grano" cx="44.87" cy="37.72" r="0.28"/><circle class="grano" cx="6.21" cy="39.59" r="0.41"/><circle class="grano" cx="6.84" cy="39.82" r="0.44"/><circle class="grano" cx="9.08" cy="39.54" r="0.42"/><circle class="grano" cx="10.28" cy="38.97" r="0.28"/><circle class="grano" cx="15.95" cy="39.18" r="0.38"/><circle class="grano" cx="21.26" cy="39.57" r="0.30"/><circle class="grano" cx="21.75" cy="39.01" r="0.41"/><circle class="grano" cx="22.96" cy="39.73" r="0.43"/><circle class="grano" cx="24.60" cy="39.34" r="0.40"/><circle class="grano" cx="26.26" cy="39.17" r="0.42"/><circle class="grano" cx="26.74" cy="39.59" r="0.43"/><circle class="grano" cx="29.14" cy="39.41" r="0.29"/><circle class="grano" cx="30.30" cy="39.02" r="0.34"/><circle class="grano" cx="31.81" cy="39.28" r="0.28"/><circle class="grano" cx="33.29" cy="39.53" r="0.31"/><circle class="grano" cx="34.92" cy="39.45" r="0.45"/><circle class="grano" cx="36.15" cy="40.03" r="0.28"/><circle class="grano" cx="36.99" cy="39.05" r="0.27"/><circle class="grano" cx="37.90" cy="39.61" r="0.34"/><circle class="grano" cx="39.54" cy="39.73" r="0.44"/><circle class="grano" cx="41.83" cy="39.18" r="0.38"/><circle class="grano" cx="45.88" cy="39.69" r="0.41"/><circle class="grano" cx="4.47" cy="40.96" r="0.42"/><circle class="grano" cx="7.12" cy="40.82" r="0.44"/><circle class="grano" cx="9.35" cy="41.05" r="0.37"/><circle class="grano" cx="12.30" cy="40.99" r="0.32"/><circle class="grano" cx="15.57" cy="40.69" r="0.36"/><circle class="grano" cx="16.72" cy="41.04" r="0.31"/><circle class="grano" cx="17.78" cy="41.29" r="0.37"/><circle class="grano" cx="19.36" cy="40.19" r="0.37"/><circle class="grano" cx="21.80" cy="40.27" r="0.28"/><circle class="grano" cx="24.01" cy="40.35" r="0.38"/><circle class="grano" cx="26.52" cy="41.04" r="0.30"/><circle class="grano" cx="30.82" cy="41.25" r="0.29"/><circle class="grano" cx="32.44" cy="40.90" r="0.32"/><circle class="grano" cx="34.72" cy="40.58" r="0.33"/><circle class="grano" cx="35.82" cy="41.00" r="0.44"/><circle class="grano" cx="36.76" cy="40.71" r="0.41"/><circle class="grano" cx="38.74" cy="41.16" r="0.42"/><circle class="grano" cx="39.35" cy="40.54" r="0.37"/><circle class="grano" cx="40.42" cy="40.93" r="0.28"/><circle class="grano" cx="42.05" cy="40.29" r="0.35"/><circle class="grano" cx="43.42" cy="40.49" r="0.37"/><circle class="grano" cx="44.99" cy="40.74" r="0.45"/><circle class="grano" cx="45.32" cy="41.31" r="0.31"/><circle class="grano" cx="4.31" cy="41.90" r="0.30"/><circle class="grano" cx="5.49" cy="42.30" r="0.39"/><circle class="grano" cx="12.55" cy="41.54" r="0.28"/><circle class="grano" cx="12.97" cy="42.56" r="0.43"/><circle class="grano" cx="17.21" cy="42.01" r="0.43"/><circle class="grano" cx="18.40" cy="41.77" r="0.32"/><circle class="grano" cx="19.63" cy="42.29" r="0.41"/><circle class="grano" cx="20.48" cy="41.79" r="0.33"/><circle class="grano" cx="25.90" cy="42.11" r="0.41"/><circle class="grano" cx="28.72" cy="42.56" r="0.35"/><circle class="grano" cx="29.31" cy="42.53" r="0.42"/><circle class="grano" cx="30.96" cy="42.44" r="0.40"/><circle class="grano" cx="32.50" cy="41.70" r="0.34"/><circle class="grano" cx="33.38" cy="42.39" r="0.42"/><circle class="grano" cx="35.90" cy="42.31" r="0.36"/><circle class="grano" cx="39.69" cy="42.38" r="0.38"/><circle class="grano" cx="40.72" cy="42.30" r="0.35"/><circle class="grano" cx="41.72" cy="41.92" r="0.31"/><circle class="grano" cx="44.46" cy="41.51" r="0.33"/><circle class="grano" cx="2.03" cy="43.78" r="0.28"/><circle class="grano" cx="3.26" cy="43.18" r="0.39"/><circle class="grano" cx="3.94" cy="43.00" r="0.42"/><circle class="grano" cx="6.81" cy="43.68" r="0.34"/><circle class="grano" cx="13.08" cy="42.86" r="0.40"/><circle class="grano" cx="17.88" cy="42.80" r="0.42"/><circle class="grano" cx="19.54" cy="43.05" r="0.29"/><circle class="grano" cx="21.20" cy="43.48" r="0.33"/><circle class="grano" cx="22.07" cy="42.74" r="0.29"/><circle class="grano" cx="27.90" cy="43.07" r="0.41"/><circle class="grano" cx="29.16" cy="42.87" r="0.39"/><circle class="grano" cx="32.10" cy="43.60" r="0.29"/><circle class="grano" cx="32.85" cy="43.53" r="0.42"/><circle class="grano" cx="38.25" cy="42.80" r="0.41"/><circle class="grano" cx="39.38" cy="42.73" r="0.33"/><circle class="grano" cx="40.35" cy="43.07" r="0.28"/><circle class="grano" cx="43.23" cy="43.42" r="0.39"/><circle class="grano" cx="44.57" cy="43.60" r="0.38"/><circle class="grano" cx="45.71" cy="43.23" r="0.31"/><circle class="grano" cx="4.41" cy="44.32" r="0.27"/><circle class="grano" cx="6.57" cy="44.15" r="0.39"/><circle class="grano" cx="7.89" cy="44.65" r="0.29"/><circle class="grano" cx="9.96" cy="44.32" r="0.38"/><circle class="grano" cx="12.44" cy="44.67" r="0.39"/><circle class="grano" cx="13.77" cy="44.77" r="0.34"/><circle class="grano" cx="15.69" cy="44.84" r="0.41"/><circle class="grano" cx="17.42" cy="44.22" r="0.44"/><circle class="grano" cx="18.44" cy="44.12" r="0.32"/><circle class="grano" cx="20.00" cy="44.22" r="0.31"/><circle class="grano" cx="22.85" cy="44.09" r="0.44"/><circle class="grano" cx="24.58" cy="44.36" r="0.38"/><circle class="grano" cx="26.75" cy="45.03" r="0.37"/><circle class="grano" cx="27.85" cy="43.98" r="0.34"/><circle class="grano" cx="29.03" cy="43.96" r="0.37"/><circle class="grano" cx="30.87" cy="44.68" r="0.36"/><circle class="grano" cx="32.54" cy="44.18" r="0.44"/><circle class="grano" cx="32.70" cy="44.25" r="0.37"/><circle class="grano" cx="37.07" cy="44.73" r="0.40"/><circle class="grano" cx="39.55" cy="44.38" r="0.33"/><circle class="grano" cx="41.17" cy="44.65" r="0.37"/><circle class="grano" cx="42.04" cy="44.50" r="0.36"/><circle class="grano" cx="42.87" cy="44.01" r="0.41"/><circle class="grano" cx="44.11" cy="44.75" r="0.31"/><circle class="grano" cx="46.28" cy="44.89" r="0.34"/><circle class="grano" cx="1.50" cy="46.22" r="0.31"/><circle class="grano" cx="4.51" cy="45.70" r="0.36"/><circle class="grano" cx="7.36" cy="45.65" r="0.30"/><circle class="grano" cx="9.12" cy="45.74" r="0.37"/><circle class="grano" cx="11.58" cy="46.16" r="0.31"/><circle class="grano" cx="17.40" cy="46.14" r="0.36"/><circle class="grano" cx="17.82" cy="45.23" r="0.42"/><circle class="grano" cx="20.50" cy="45.69" r="0.33"/><circle class="grano" cx="22.34" cy="45.89" r="0.37"/><circle class="grano" cx="23.24" cy="45.48" r="0.35"/><circle class="grano" cx="24.49" cy="46.21" r="0.30"/><circle class="grano" cx="26.27" cy="46.13" r="0.30"/><circle class="grano" cx="28.59" cy="45.33" r="0.30"/><circle class="grano" cx="29.57" cy="46.18" r="0.32"/><circle class="grano" cx="31.26" cy="46.20" r="0.42"/><circle class="grano" cx="31.71" cy="46.06" r="0.34"/><circle class="grano" cx="33.27" cy="45.79" r="0.33"/><circle class="grano" cx="38.55" cy="46.14" r="0.30"/><circle class="grano" cx="39.46" cy="45.68" r="0.32"/><circle class="grano" cx="41.03" cy="45.34" r="0.39"/><circle class="grano" cx="41.60" cy="45.51" r="0.30"/><circle class="grano" cx="43.76" cy="45.37" r="0.35"/><circle class="grano" cx="45.05" cy="46.03" r="0.36"/></g><g fill="none" stroke="#4a6584" stroke-linecap="round" stroke-linejoin="round"><g stroke-width="1.8" mask="url(#gr5m)" transform="translate(0.35 0.4)"><path d="M20.5 7.5H42.5V33.5H20.5Z"/><path d="M24.60 32.00 L26.97 32.75 L26.68 34.61 L24.19 34.61 A8.6 8.6 0 0 1 23.23 36.65 L23.23 36.65 L24.82 38.57 L23.58 39.98 L21.48 38.63 A8.6 8.6 0 0 1 19.57 39.82 L19.57 39.82 L19.87 42.30 L18.06 42.81 L17.03 40.54 A8.6 8.6 0 0 1 14.78 40.51 L14.78 40.51 L13.69 42.76 L11.89 42.20 L12.25 39.74 A8.6 8.6 0 0 1 10.37 38.50 L10.37 38.50 L8.24 39.80 L7.03 38.36 L8.66 36.48 A8.6 8.6 0 0 1 7.75 34.42 L7.75 34.42 L5.26 34.37 L5.01 32.50 L7.40 31.80 A8.6 8.6 0 0 1 7.75 29.58 L7.75 29.58 L5.68 28.19 L6.48 26.48 L8.87 27.19 A8.6 8.6 0 0 1 10.37 25.50 L10.37 25.50 L9.38 23.21 L10.98 22.21 L12.61 24.10 A8.6 8.6 0 0 1 14.78 23.49 L14.78 23.49 L15.18 21.03 L17.07 21.05 L17.42 23.52 A8.6 8.6 0 0 1 19.57 24.18 L19.57 24.18 L21.24 22.33 L22.82 23.37 L21.78 25.63 A8.6 8.6 0 0 1 23.23 27.35 L23.23 27.35 L25.64 26.70 L26.40 28.42 L24.30 29.77 A8.6 8.6 0 0 1 24.60 32.00 Z"/></g><g stroke-width="1.05"><path d="M20.5 7.5H42.5V33.5H20.5Z"/><path d="M24.60 32.00 L26.97 32.75 L26.68 34.61 L24.19 34.61 A8.6 8.6 0 0 1 23.23 36.65 L23.23 36.65 L24.82 38.57 L23.58 39.98 L21.48 38.63 A8.6 8.6 0 0 1 19.57 39.82 L19.57 39.82 L19.87 42.30 L18.06 42.81 L17.03 40.54 A8.6 8.6 0 0 1 14.78 40.51 L14.78 40.51 L13.69 42.76 L11.89 42.20 L12.25 39.74 A8.6 8.6 0 0 1 10.37 38.50 L10.37 38.50 L8.24 39.80 L7.03 38.36 L8.66 36.48 A8.6 8.6 0 0 1 7.75 34.42 L7.75 34.42 L5.26 34.37 L5.01 32.50 L7.40 31.80 A8.6 8.6 0 0 1 7.75 29.58 L7.75 29.58 L5.68 28.19 L6.48 26.48 L8.87 27.19 A8.6 8.6 0 0 1 10.37 25.50 L10.37 25.50 L9.38 23.21 L10.98 22.21 L12.61 24.10 A8.6 8.6 0 0 1 14.78 23.49 L14.78 23.49 L15.18 21.03 L17.07 21.05 L17.42 23.52 A8.6 8.6 0 0 1 19.57 24.18 L19.57 24.18 L21.24 22.33 L22.82 23.37 L21.78 25.63 A8.6 8.6 0 0 1 23.23 27.35 L23.23 27.35 L25.64 26.70 L26.40 28.42 L24.30 29.77 A8.6 8.6 0 0 1 24.60 32.00 Z"/></g><g stroke-width="0.756"><path d="M20.5 13.5H42.5"/><path d="M25.5 5V10"/><path d="M37.5 5V10"/><path d="M26 18.5H26.8"/><path d="M30 18.5H30.8"/><path d="M34 18.5H34.8"/><path d="M38 18.5H38.8"/><path d="M26 23H26.8"/><path d="M30 23H30.8"/><path d="M34 23H34.8"/><path d="M38 23H38.8"/><path d="M30 27.5H30.8"/><path d="M38 27.5H38.8"/><path d="M12.8 32a3.2 3.2 0 1 0 6.4 0a3.2 3.2 0 1 0-6.4 0"/><path d="M16 26.6V28.8"/><path d="M16 35.2V37.4"/><path d="M10.6 32H12.8"/><path d="M19.2 32H21.4"/></g></g><g fill="#4a6584"><path d="M32.6 27.5a1.8 1.8 0 1 0 3.6 0a1.8 1.8 0 1 0-3.6 0Z"/></g><path d="M17 45.4H31M19.5 47.4H28.5" stroke="#4a6584" stroke-width="0.85" fill="none" stroke-linecap="round"/></svg>