<svg xmlns="http://www.w3.org/2000/svg" width="96" height="96" viewBox="0 0 48 48" role="img" aria-label="Factoring" class="grabado estado-tiene"><title>Factoring</title><defs><clipPath id="gr3c"><path d="M6.5 12.5H22.5L27.5 17.5V40.5H6.5Z"/><path d="M29.5 36.8C29.5 35.2 32.6 34 36.5 34C40.4 34 43.5 35.2 43.5 36.8V41.2C43.5 42.8 40.4 44 36.5 44C32.6 44 29.5 42.8 29.5 41.2Z"/></clipPath><linearGradient id="gr3g" x1="0" y1="0" x2="1" y2="1"><stop offset="0.45" stop-color="#fff" stop-opacity="0"/><stop offset="0.62" stop-color="#fff" stop-opacity="1"/></linearGradient><mask id="gr3m" maskUnits="userSpaceOnUse" x="0" y="0" width="48" height="48"><rect width="48" height="48" fill="url(#gr3g)"/></mask></defs><g clip-path="url(#gr3c)" fill="#2690cc"><circle class="grano" cx="34.46" cy="2.26" r="0.34"/><circle class="grano" cx="38.79" cy="1.73" r="0.28"/><circle class="grano" cx="40.90" cy="2.17" r="0.38"/><circle class="grano" cx="46.17" cy="2.20" r="0.35"/><circle class="grano" cx="34.11" cy="3.23" r="0.32"/><circle class="grano" cx="44.15" cy="2.85" r="0.36"/><circle class="grano" cx="35.87" cy="5.02" r="0.36"/><circle class="grano" cx="34.20" cy="5.71" r="0.42"/><circle class="grano" cx="39.00" cy="5.53" r="0.37"/><circle class="grano" cx="43.13" cy="5.77" r="0.29"/><circle class="grano" cx="45.76" cy="5.92" r="0.40"/><circle class="grano" cx="23.37" cy="6.91" r="0.38"/><circle class="grano" cx="26.55" cy="7.29" r="0.30"/><circle class="grano" cx="27.70" cy="6.52" r="0.31"/><circle class="grano" cx="33.54" cy="7.31" r="0.31"/><circle class="grano" cx="35.01" cy="7.24" r="0.35"/><circle class="grano" cx="37.53" cy="7.23" r="0.42"/><circle class="grano" cx="38.20" cy="6.78" r="0.31"/><circle class="grano" cx="40.01" cy="6.51" r="0.29"/><circle class="grano" cx="41.65" cy="7.17" r="0.41"/><circle class="grano" cx="28.36" cy="7.70" r="0.39"/><circle class="grano" cx="32.04" cy="8.31" r="0.28"/><circle class="grano" cx="39.93" cy="8.64" r="0.34"/><circle class="grano" cx="40.94" cy="8.17" r="0.38"/><circle class="grano" cx="42.16" cy="8.64" r="0.42"/><circle class="grano" cx="45.54" cy="8.42" r="0.38"/><circle class="grano" cx="33.50" cy="9.28" r="0.35"/><circle class="grano" cx="35.05" cy="9.47" r="0.34"/><circle class="grano" cx="35.78" cy="9.81" r="0.39"/><circle class="grano" cx="38.97" cy="9.43" r="0.29"/><circle class="grano" cx="28.50" cy="10.52" r="0.33"/><circle class="grano" cx="33.24" cy="11.27" r="0.40"/><circle class="grano" cx="35.00" cy="10.65" r="0.40"/><circle class="grano" cx="36.55" cy="10.41" r="0.35"/><circle class="grano" cx="37.90" cy="10.51" r="0.33"/><circle class="grano" cx="39.57" cy="10.92" r="0.37"/><circle class="grano" cx="41.69" cy="10.63" r="0.44"/><circle class="grano" cx="42.72" cy="10.82" r="0.41"/><circle class="grano" cx="44.34" cy="10.78" r="0.42"/><circle class="grano" cx="46.28" cy="10.56" r="0.42"/><circle class="grano" cx="26.14" cy="12.25" r="0.34"/><circle class="grano" cx="29.08" cy="12.20" r="0.34"/><circle class="grano" cx="34.70" cy="11.75" r="0.38"/><circle class="grano" cx="37.86" cy="12.17" r="0.38"/><circle class="grano" cx="41.59" cy="12.45" r="0.36"/><circle class="grano" cx="44.16" cy="12.32" r="0.45"/><circle class="grano" cx="46.19" cy="11.84" r="0.37"/><circle class="grano" cx="37.06" cy="13.64" r="0.28"/><circle class="grano" cx="42.02" cy="12.71" r="0.42"/><circle class="grano" cx="42.87" cy="13.34" r="0.31"/><circle class="grano" cx="25.78" cy="13.96" r="0.31"/><circle class="grano" cx="32.90" cy="15.04" r="0.41"/><circle class="grano" cx="35.26" cy="13.96" r="0.42"/><circle class="grano" cx="36.47" cy="14.39" r="0.37"/><circle class="grano" cx="39.93" cy="14.78" r="0.43"/><circle class="grano" cx="43.65" cy="15.05" r="0.36"/><circle class="grano" cx="44.31" cy="14.46" r="0.28"/><circle class="grano" cx="24.74" cy="16.11" r="0.32"/><circle class="grano" cx="28.60" cy="15.49" r="0.37"/><circle class="grano" cx="37.02" cy="16.21" r="0.31"/><circle class="grano" cx="41.07" cy="15.33" r="0.42"/><circle class="grano" cx="43.00" cy="15.66" r="0.34"/><circle class="grano" cx="44.08" cy="15.98" r="0.43"/><circle class="grano" cx="45.75" cy="16.23" r="0.27"/><circle class="grano" cx="25.84" cy="17.13" r="0.41"/><circle class="grano" cx="27.91" cy="17.39" r="0.36"/><circle class="grano" cx="31.67" cy="16.90" r="0.38"/><circle class="grano" cx="33.20" cy="17.15" r="0.33"/><circle class="grano" cx="38.48" cy="16.67" r="0.30"/><circle class="grano" cx="41.75" cy="17.31" r="0.43"/><circle class="grano" cx="30.23" cy="18.62" r="0.34"/><circle class="grano" cx="32.94" cy="18.25" r="0.31"/><circle class="grano" cx="35.29" cy="18.40" r="0.32"/><circle class="grano" cx="37.15" cy="18.14" r="0.38"/><circle class="grano" cx="37.91" cy="18.76" r="0.28"/><circle class="grano" cx="39.22" cy="17.88" r="0.29"/><circle class="grano" cx="43.22" cy="18.39" r="0.37"/><circle class="grano" cx="21.59" cy="19.99" r="0.29"/><circle class="grano" cx="34.16" cy="19.05" r="0.42"/><circle class="grano" cx="37.01" cy="19.94" r="0.39"/><circle class="grano" cx="38.79" cy="19.66" r="0.42"/><circle class="grano" cx="40.19" cy="19.20" r="0.29"/><circle class="grano" cx="41.99" cy="19.55" r="0.35"/><circle class="grano" cx="42.88" cy="19.07" r="0.38"/><circle class="grano" cx="44.06" cy="19.70" r="0.37"/><circle class="grano" cx="11.13" cy="20.35" r="0.42"/><circle class="grano" cx="11.77" cy="20.99" r="0.33"/><circle class="grano" cx="23.46" cy="20.38" r="0.32"/><circle class="grano" cx="27.89" cy="20.63" r="0.37"/><circle class="grano" cx="29.03" cy="21.21" r="0.44"/><circle class="grano" cx="31.78" cy="21.15" r="0.36"/><circle class="grano" cx="36.17" cy="21.10" r="0.30"/><circle class="grano" cx="37.74" cy="20.86" r="0.37"/><circle class="grano" cx="39.18" cy="20.34" r="0.40"/><circle class="grano" cx="41.15" cy="20.59" r="0.31"/><circle class="grano" cx="43.14" cy="21.24" r="0.28"/><circle class="grano" cx="44.89" cy="20.66" r="0.35"/><circle class="grano" cx="45.64" cy="20.83" r="0.35"/><circle class="grano" cx="13.77" cy="22.39" r="0.27"/><circle class="grano" cx="18.58" cy="21.91" r="0.28"/><circle class="grano" cx="22.14" cy="22.21" r="0.34"/><circle class="grano" cx="23.33" cy="22.36" r="0.38"/><circle class="grano" cx="31.72" cy="21.74" r="0.34"/><circle class="grano" cx="38.10" cy="22.30" r="0.40"/><circle class="grano" cx="40.04" cy="21.74" r="0.44"/><circle class="grano" cx="41.03" cy="22.20" r="0.45"/><circle class="grano" cx="43.53" cy="22.11" r="0.38"/><circle class="grano" cx="46.05" cy="21.63" r="0.28"/><circle class="grano" cx="9.04" cy="22.99" r="0.29"/><circle class="grano" cx="10.49" cy="22.93" r="0.27"/><circle class="grano" cx="18.62" cy="22.99" r="0.37"/><circle class="grano" cx="28.23" cy="23.13" r="0.36"/><circle class="grano" cx="30.76" cy="23.67" r="0.34"/><circle class="grano" cx="32.28" cy="23.10" r="0.42"/><circle class="grano" cx="34.88" cy="23.65" r="0.31"/><circle class="grano" cx="36.12" cy="22.72" r="0.40"/><circle class="grano" cx="37.56" cy="23.19" r="0.31"/><circle class="grano" cx="39.07" cy="23.16" r="0.42"/><circle class="grano" cx="41.46" cy="23.68" r="0.44"/><circle class="grano" cx="43.09" cy="23.05" r="0.39"/><circle class="grano" cx="44.79" cy="23.20" r="0.31"/><circle class="grano" cx="45.53" cy="23.07" r="0.28"/><circle class="grano" cx="16.85" cy="24.92" r="0.37"/><circle class="grano" cx="19.74" cy="24.90" r="0.31"/><circle class="grano" cx="22.03" cy="24.15" r="0.27"/><circle class="grano" cx="27.23" cy="24.68" r="0.39"/><circle class="grano" cx="28.47" cy="24.30" r="0.33"/><circle class="grano" cx="30.94" cy="24.22" r="0.32"/><circle class="grano" cx="31.64" cy="24.47" r="0.33"/><circle class="grano" cx="34.67" cy="24.54" r="0.43"/><circle class="grano" cx="35.60" cy="24.24" r="0.35"/><circle class="grano" cx="36.87" cy="24.97" r="0.34"/><circle class="grano" cx="41.93" cy="24.12" r="0.43"/><circle class="grano" cx="43.34" cy="24.50" r="0.29"/><circle class="grano" cx="44.06" cy="25.06" r="0.44"/><circle class="grano" cx="5.32" cy="25.39" r="0.39"/><circle class="grano" cx="9.30" cy="25.23" r="0.37"/><circle class="grano" cx="12.55" cy="25.51" r="0.36"/><circle class="grano" cx="18.75" cy="25.29" r="0.31"/><circle class="grano" cx="19.68" cy="25.27" r="0.30"/><circle class="grano" cx="27.91" cy="25.36" r="0.33"/><circle class="grano" cx="30.80" cy="25.70" r="0.38"/><circle class="grano" cx="31.52" cy="25.78" r="0.44"/><circle class="grano" cx="34.78" cy="26.12" r="0.29"/><circle class="grano" cx="36.19" cy="25.57" r="0.36"/><circle class="grano" cx="36.72" cy="25.85" r="0.35"/><circle class="grano" cx="38.51" cy="26.16" r="0.29"/><circle class="grano" cx="40.40" cy="25.96" r="0.44"/><circle class="grano" cx="41.67" cy="25.61" r="0.45"/><circle class="grano" cx="43.57" cy="25.99" r="0.43"/><circle class="grano" cx="44.77" cy="25.28" r="0.43"/><circle class="grano" cx="3.03" cy="26.44" r="0.35"/><circle class="grano" cx="11.30" cy="27.05" r="0.28"/><circle class="grano" cx="16.83" cy="26.80" r="0.31"/><circle class="grano" cx="17.86" cy="27.43" r="0.29"/><circle class="grano" cx="19.13" cy="27.13" r="0.39"/><circle class="grano" cx="23.54" cy="27.40" r="0.41"/><circle class="grano" cx="24.90" cy="27.35" r="0.45"/><circle class="grano" cx="26.15" cy="26.49" r="0.36"/><circle class="grano" cx="26.49" cy="27.14" r="0.30"/><circle class="grano" cx="28.13" cy="26.76" r="0.35"/><circle class="grano" cx="29.87" cy="26.67" r="0.28"/><circle class="grano" cx="32.02" cy="27.03" r="0.33"/><circle class="grano" cx="34.03" cy="27.43" r="0.38"/><circle class="grano" cx="37.20" cy="27.41" r="0.43"/><circle class="grano" cx="39.43" cy="26.98" r="0.42"/><circle class="grano" cx="41.21" cy="26.90" r="0.39"/><circle class="grano" cx="42.21" cy="26.86" r="0.40"/><circle class="grano" cx="43.18" cy="27.48" r="0.44"/><circle class="grano" cx="44.07" cy="27.22" r="0.34"/><circle class="grano" cx="46.22" cy="27.42" r="0.41"/><circle class="grano" cx="19.34" cy="27.99" r="0.34"/><circle class="grano" cx="20.33" cy="28.66" r="0.41"/><circle class="grano" cx="22.98" cy="28.73" r="0.30"/><circle class="grano" cx="28.21" cy="28.80" r="0.36"/><circle class="grano" cx="30.30" cy="28.61" r="0.41"/><circle class="grano" cx="34.77" cy="28.42" r="0.40"/><circle class="grano" cx="35.58" cy="27.90" r="0.34"/><circle class="grano" cx="37.39" cy="28.05" r="0.42"/><circle class="grano" cx="40.57" cy="28.53" r="0.32"/><circle class="grano" cx="44.60" cy="28.70" r="0.36"/><circle class="grano" cx="11.01" cy="29.61" r="0.44"/><circle class="grano" cx="13.17" cy="29.58" r="0.45"/><circle class="grano" cx="15.81" cy="29.57" r="0.39"/><circle class="grano" cx="20.00" cy="29.21" r="0.32"/><circle class="grano" cx="20.82" cy="29.48" r="0.30"/><circle class="grano" cx="21.57" cy="29.84" r="0.27"/><circle class="grano" cx="30.01" cy="29.07" r="0.31"/><circle class="grano" cx="32.70" cy="29.02" r="0.44"/><circle class="grano" cx="34.98" cy="30.03" r="0.41"/><circle class="grano" cx="35.63" cy="29.79" r="0.35"/><circle class="grano" cx="37.79" cy="29.22" r="0.44"/><circle class="grano" cx="39.02" cy="29.08" r="0.45"/><circle class="grano" cx="40.99" cy="29.50" r="0.33"/><circle class="grano" cx="42.10" cy="29.76" r="0.36"/><circle class="grano" cx="42.99" cy="29.40" r="0.36"/><circle class="grano" cx="44.19" cy="29.28" r="0.34"/><circle class="grano" cx="45.86" cy="29.76" r="0.37"/><circle class="grano" cx="3.66" cy="30.30" r="0.35"/><circle class="grano" cx="4.05" cy="30.22" r="0.28"/><circle class="grano" cx="17.45" cy="30.19" r="0.33"/><circle class="grano" cx="20.49" cy="30.46" r="0.36"/><circle class="grano" cx="22.26" cy="31.10" r="0.37"/><circle class="grano" cx="23.18" cy="30.57" r="0.31"/><circle class="grano" cx="26.10" cy="31.14" r="0.35"/><circle class="grano" cx="38.50" cy="31.12" r="0.28"/><circle class="grano" cx="39.99" cy="31.02" r="0.33"/><circle class="grano" cx="43.53" cy="30.79" r="0.44"/><circle class="grano" cx="44.94" cy="31.28" r="0.31"/><circle class="grano" cx="2.71" cy="31.51" r="0.28"/><circle class="grano" cx="6.50" cy="31.80" r="0.31"/><circle class="grano" cx="7.76" cy="31.76" r="0.34"/><circle class="grano" cx="11.02" cy="32.50" r="0.38"/><circle class="grano" cx="12.37" cy="32.18" r="0.30"/><circle class="grano" cx="14.82" cy="31.65" r="0.29"/><circle class="grano" cx="15.89" cy="31.66" r="0.37"/><circle class="grano" cx="20.83" cy="31.90" r="0.37"/><circle class="grano" cx="22.83" cy="31.51" r="0.34"/><circle class="grano" cx="24.48" cy="31.47" r="0.32"/><circle class="grano" cx="25.86" cy="32.37" r="0.43"/><circle class="grano" cx="27.49" cy="31.76" r="0.27"/><circle class="grano" cx="28.42" cy="31.48" r="0.32"/><circle class="grano" cx="29.52" cy="31.92" r="0.30"/><circle class="grano" cx="31.07" cy="31.48" r="0.29"/><circle class="grano" cx="31.83" cy="32.28" r="0.34"/><circle class="grano" cx="34.81" cy="32.38" r="0.32"/><circle class="grano" cx="35.77" cy="31.67" r="0.37"/><circle class="grano" cx="37.18" cy="32.03" r="0.41"/><circle class="grano" cx="38.22" cy="32.41" r="0.35"/><circle class="grano" cx="39.59" cy="31.92" r="0.44"/><circle class="grano" cx="40.36" cy="31.98" r="0.41"/><circle class="grano" cx="42.24" cy="32.05" r="0.44"/><circle class="grano" cx="43.04" cy="32.09" r="0.41"/><circle class="grano" cx="44.88" cy="32.07" r="0.39"/><circle class="grano" cx="3.38" cy="33.73" r="0.36"/><circle class="grano" cx="9.15" cy="33.07" r="0.42"/><circle class="grano" cx="15.98" cy="33.24" r="0.44"/><circle class="grano" cx="17.75" cy="32.79" r="0.31"/><circle class="grano" cx="21.25" cy="32.96" r="0.37"/><circle class="grano" cx="22.70" cy="33.36" r="0.39"/><circle class="grano" cx="24.34" cy="33.66" r="0.30"/><circle class="grano" cx="26.10" cy="32.81" r="0.36"/><circle class="grano" cx="26.51" cy="32.92" r="0.43"/><circle class="grano" cx="27.78" cy="32.72" r="0.41"/><circle class="grano" cx="30.24" cy="33.28" r="0.37"/><circle class="grano" cx="31.82" cy="33.17" r="0.28"/><circle class="grano" cx="33.78" cy="32.96" r="0.30"/><circle class="grano" cx="34.57" cy="33.33" r="0.28"/><circle class="grano" cx="35.30" cy="32.96" r="0.31"/><circle class="grano" cx="36.71" cy="33.79" r="0.31"/><circle class="grano" cx="39.77" cy="32.80" r="0.43"/><circle class="grano" cx="42.45" cy="32.89" r="0.28"/><circle class="grano" cx="42.84" cy="33.34" r="0.28"/><circle class="grano" cx="2.29" cy="34.49" r="0.32"/><circle class="grano" cx="5.24" cy="34.77" r="0.31"/><circle class="grano" cx="6.75" cy="34.99" r="0.45"/><circle class="grano" cx="8.11" cy="34.55" r="0.44"/><circle class="grano" cx="9.03" cy="34.78" r="0.42"/><circle class="grano" cx="10.67" cy="34.25" r="0.42"/><circle class="grano" cx="16.68" cy="34.19" r="0.28"/><circle class="grano" cx="18.12" cy="34.79" r="0.44"/><circle class="grano" cx="19.26" cy="34.03" r="0.34"/><circle class="grano" cx="20.71" cy="34.87" r="0.32"/><circle class="grano" cx="22.72" cy="33.98" r="0.30"/><circle class="grano" cx="23.99" cy="33.95" r="0.39"/><circle class="grano" cx="28.15" cy="34.23" r="0.30"/><circle class="grano" cx="29.35" cy="34.92" r="0.42"/><circle class="grano" cx="31.14" cy="33.95" r="0.37"/><circle class="grano" cx="33.74" cy="34.31" r="0.39"/><circle class="grano" cx="34.34" cy="34.08" r="0.30"/><circle class="grano" cx="35.87" cy="34.41" r="0.38"/><circle class="grano" cx="37.95" cy="33.96" r="0.34"/><circle class="grano" cx="39.77" cy="34.11" r="0.28"/><circle class="grano" cx="42.13" cy="34.09" r="0.31"/><circle class="grano" cx="43.06" cy="34.17" r="0.42"/><circle class="grano" cx="44.02" cy="34.74" r="0.38"/><circle class="grano" cx="45.65" cy="34.06" r="0.45"/><circle class="grano" cx="2.35" cy="35.27" r="0.37"/><circle class="grano" cx="5.75" cy="35.64" r="0.29"/><circle class="grano" cx="7.48" cy="36.31" r="0.44"/><circle class="grano" cx="10.94" cy="36.00" r="0.42"/><circle class="grano" cx="15.97" cy="35.45" r="0.45"/><circle class="grano" cx="17.55" cy="36.08" r="0.40"/><circle class="grano" cx="18.35" cy="35.71" r="0.38"/><circle class="grano" cx="20.45" cy="36.23" r="0.32"/><circle class="grano" cx="21.54" cy="35.59" r="0.39"/><circle class="grano" cx="23.57" cy="35.67" r="0.37"/><circle class="grano" cx="26.19" cy="35.80" r="0.40"/><circle class="grano" cx="26.73" cy="35.77" r="0.38"/><circle class="grano" cx="27.95" cy="35.33" r="0.36"/><circle class="grano" cx="29.45" cy="35.54" r="0.37"/><circle class="grano" cx="31.67" cy="36.15" r="0.32"/><circle class="grano" cx="33.09" cy="35.33" r="0.31"/><circle class="grano" cx="37.45" cy="35.82" r="0.42"/><circle class="grano" cx="38.58" cy="35.93" r="0.43"/><circle class="grano" cx="39.37" cy="35.33" r="0.37"/><circle class="grano" cx="40.27" cy="35.31" r="0.31"/><circle class="grano" cx="41.78" cy="35.95" r="0.35"/><circle class="grano" cx="42.80" cy="35.52" r="0.32"/><circle class="grano" cx="46.17" cy="35.32" r="0.31"/><circle class="grano" cx="4.60" cy="37.32" r="0.38"/><circle class="grano" cx="8.03" cy="37.53" r="0.31"/><circle class="grano" cx="9.67" cy="37.30" r="0.27"/><circle class="grano" cx="10.99" cy="36.92" r="0.40"/><circle class="grano" cx="14.30" cy="36.60" r="0.33"/><circle class="grano" cx="15.26" cy="37.03" r="0.30"/><circle class="grano" cx="17.35" cy="36.46" r="0.43"/><circle class="grano" cx="18.72" cy="37.49" r="0.41"/><circle class="grano" cx="21.22" cy="37.37" r="0.31"/><circle class="grano" cx="22.38" cy="37.49" r="0.36"/><circle class="grano" cx="24.48" cy="36.48" r="0.43"/><circle class="grano" cx="25.36" cy="36.85" r="0.45"/><circle class="grano" cx="28.64" cy="36.74" r="0.28"/><circle class="grano" cx="29.27" cy="36.79" r="0.37"/><circle class="grano" cx="31.28" cy="36.50" r="0.36"/><circle class="grano" cx="32.35" cy="36.91" r="0.29"/><circle class="grano" cx="32.86" cy="37.23" r="0.35"/><circle class="grano" cx="34.24" cy="37.22" r="0.35"/><circle class="grano" cx="35.93" cy="37.18" r="0.28"/><circle class="grano" cx="36.95" cy="37.20" r="0.41"/><circle class="grano" cx="37.98" cy="36.52" r="0.31"/><circle class="grano" cx="40.95" cy="36.60" r="0.35"/><circle class="grano" cx="42.45" cy="36.45" r="0.27"/><circle class="grano" cx="43.73" cy="37.07" r="0.31"/><circle class="grano" cx="44.65" cy="36.90" r="0.34"/><circle class="grano" cx="45.48" cy="37.45" r="0.32"/><circle class="grano" cx="2.34" cy="38.68" r="0.30"/><circle class="grano" cx="4.67" cy="38.26" r="0.45"/><circle class="grano" cx="13.17" cy="38.50" r="0.34"/><circle class="grano" cx="18.66" cy="38.40" r="0.39"/><circle class="grano" cx="20.66" cy="38.67" r="0.35"/><circle class="grano" cx="21.51" cy="38.64" r="0.41"/><circle class="grano" cx="22.76" cy="38.04" r="0.33"/><circle class="grano" cx="25.76" cy="37.87" r="0.28"/><circle class="grano" cx="26.82" cy="38.34" r="0.43"/><circle class="grano" cx="28.49" cy="37.78" r="0.40"/><circle class="grano" cx="33.42" cy="38.57" r="0.39"/><circle class="grano" cx="34.35" cy="38.40" r="0.33"/><circle class="grano" cx="37.47" cy="38.03" r="0.43"/><circle class="grano" cx="38.31" cy="37.72" r="0.28"/><circle class="grano" cx="39.07" cy="38.05" r="0.31"/><circle class="grano" cx="40.44" cy="37.86" r="0.35"/><circle class="grano" cx="41.69" cy="38.01" r="0.37"/><circle class="grano" cx="43.70" cy="38.35" r="0.36"/><circle class="grano" cx="44.71" cy="38.06" r="0.27"/><circle class="grano" cx="2.47" cy="40.04" r="0.34"/><circle class="grano" cx="3.47" cy="39.64" r="0.36"/><circle class="grano" cx="5.47" cy="39.35" r="0.32"/><circle class="grano" cx="10.04" cy="38.99" r="0.42"/><circle class="grano" cx="12.52" cy="38.98" r="0.38"/><circle class="grano" cx="13.59" cy="39.13" r="0.31"/><circle class="grano" cx="15.80" cy="40.05" r="0.30"/><circle class="grano" cx="18.04" cy="39.09" r="0.42"/><circle class="grano" cx="18.99" cy="39.90" r="0.37"/><circle class="grano" cx="20.67" cy="38.95" r="0.42"/><circle class="grano" cx="22.43" cy="39.65" r="0.44"/><circle class="grano" cx="24.18" cy="39.20" r="0.31"/><circle class="grano" cx="26.15" cy="39.89" r="0.43"/><circle class="grano" cx="27.86" cy="39.85" r="0.29"/><circle class="grano" cx="30.51" cy="39.60" r="0.28"/><circle class="grano" cx="31.77" cy="39.47" r="0.34"/><circle class="grano" cx="32.89" cy="40.01" r="0.27"/><circle class="grano" cx="34.93" cy="39.33" r="0.44"/><circle class="grano" cx="35.26" cy="39.62" r="0.44"/><circle class="grano" cx="36.62" cy="39.71" r="0.34"/><circle class="grano" cx="38.48" cy="39.39" r="0.41"/><circle class="grano" cx="38.94" cy="39.19" r="0.30"/><circle class="grano" cx="40.64" cy="39.18" r="0.42"/><circle class="grano" cx="41.62" cy="39.33" r="0.28"/><circle class="grano" cx="43.16" cy="39.14" r="0.33"/><circle class="grano" cx="44.78" cy="39.44" r="0.40"/><circle class="grano" cx="1.74" cy="40.78" r="0.31"/><circle class="grano" cx="3.11" cy="40.90" r="0.39"/><circle class="grano" cx="9.75" cy="41.03" r="0.33"/><circle class="grano" cx="12.39" cy="40.52" r="0.37"/><circle class="grano" cx="16.12" cy="40.66" r="0.44"/><circle class="grano" cx="18.10" cy="40.80" r="0.29"/><circle class="grano" cx="19.78" cy="41.29" r="0.27"/><circle class="grano" cx="20.28" cy="40.77" r="0.30"/><circle class="grano" cx="21.56" cy="40.71" r="0.39"/><circle class="grano" cx="26.01" cy="40.30" r="0.39"/><circle class="grano" cx="26.93" cy="40.36" r="0.45"/><circle class="grano" cx="27.84" cy="40.28" r="0.38"/><circle class="grano" cx="29.38" cy="40.40" r="0.37"/><circle class="grano" cx="31.21" cy="40.53" r="0.40"/><circle class="grano" cx="32.24" cy="41.19" r="0.40"/><circle class="grano" cx="33.55" cy="41.30" r="0.30"/><circle class="grano" cx="34.53" cy="40.51" r="0.30"/><circle class="grano" cx="36.18" cy="41.04" r="0.43"/><circle class="grano" cx="36.63" cy="40.52" r="0.27"/><circle class="grano" cx="39.22" cy="40.69" r="0.41"/><circle class="grano" cx="40.23" cy="40.80" r="0.31"/><circle class="grano" cx="41.53" cy="41.29" r="0.45"/><circle class="grano" cx="43.51" cy="41.16" r="0.42"/><circle class="grano" cx="44.19" cy="41.05" r="0.41"/><circle class="grano" cx="45.71" cy="40.41" r="0.28"/><circle class="grano" cx="1.68" cy="42.54" r="0.41"/><circle class="grano" cx="4.41" cy="42.55" r="0.32"/><circle class="grano" cx="5.59" cy="41.86" r="0.36"/><circle class="grano" cx="7.71" cy="42.41" r="0.40"/><circle class="grano" cx="9.54" cy="42.39" r="0.33"/><circle class="grano" cx="15.74" cy="41.86" r="0.41"/><circle class="grano" cx="16.65" cy="42.19" r="0.38"/><circle class="grano" cx="22.43" cy="41.86" r="0.33"/><circle class="grano" cx="24.93" cy="42.18" r="0.37"/><circle class="grano" cx="25.87" cy="41.95" r="0.29"/><circle class="grano" cx="27.04" cy="41.51" r="0.30"/><circle class="grano" cx="28.26" cy="42.07" r="0.36"/><circle class="grano" cx="29.72" cy="42.12" r="0.31"/><circle class="grano" cx="30.47" cy="41.68" r="0.29"/><circle class="grano" cx="32.37" cy="41.51" r="0.41"/><circle class="grano" cx="32.79" cy="42.27" r="0.39"/><circle class="grano" cx="35.29" cy="42.28" r="0.43"/><circle class="grano" cx="37.20" cy="42.48" r="0.36"/><circle class="grano" cx="37.81" cy="42.40" r="0.43"/><circle class="grano" cx="39.23" cy="42.40" r="0.31"/><circle class="grano" cx="40.75" cy="42.51" r="0.36"/><circle class="grano" cx="42.30" cy="42.51" r="0.28"/><circle class="grano" cx="43.40" cy="41.45" r="0.34"/><circle class="grano" cx="44.44" cy="42.45" r="0.33"/><circle class="grano" cx="45.43" cy="42.01" r="0.36"/><circle class="grano" cx="4.12" cy="43.32" r="0.37"/><circle class="grano" cx="7.46" cy="43.71" r="0.28"/><circle class="grano" cx="8.01" cy="42.76" r="0.34"/><circle class="grano" cx="9.93" cy="42.89" r="0.27"/><circle class="grano" cx="11.02" cy="43.31" r="0.33"/><circle class="grano" cx="11.97" cy="43.23" r="0.37"/><circle class="grano" cx="14.51" cy="43.79" r="0.44"/><circle class="grano" cx="18.46" cy="43.66" r="0.44"/><circle class="grano" cx="19.05" cy="43.29" r="0.40"/><circle class="grano" cx="21.31" cy="43.76" r="0.43"/><circle class="grano" cx="23.73" cy="43.69" r="0.36"/><circle class="grano" cx="24.01" cy="43.75" r="0.35"/><circle class="grano" cx="25.65" cy="42.97" r="0.43"/><circle class="grano" cx="29.67" cy="43.08" r="0.37"/><circle class="grano" cx="31.90" cy="43.47" r="0.32"/><circle class="grano" cx="32.96" cy="43.78" r="0.28"/><circle class="grano" cx="34.09" cy="43.33" r="0.40"/><circle class="grano" cx="36.16" cy="43.63" r="0.35"/><circle class="grano" cx="37.39" cy="43.09" r="0.44"/><circle class="grano" cx="38.64" cy="43.31" r="0.32"/><circle class="grano" cx="39.42" cy="42.91" r="0.34"/><circle class="grano" cx="41.31" cy="43.39" r="0.39"/><circle class="grano" cx="41.55" cy="42.80" r="0.35"/><circle class="grano" cx="42.69" cy="43.69" r="0.31"/><circle class="grano" cx="46.24" cy="43.03" r="0.27"/><circle class="grano" cx="3.21" cy="44.51" r="0.41"/><circle class="grano" cx="9.25" cy="44.35" r="0.31"/><circle class="grano" cx="14.25" cy="44.55" r="0.40"/><circle class="grano" cx="16.13" cy="44.88" r="0.28"/><circle class="grano" cx="17.25" cy="44.92" r="0.43"/><circle class="grano" cx="18.51" cy="44.42" r="0.28"/><circle class="grano" cx="19.86" cy="44.61" r="0.44"/><circle class="grano" cx="21.26" cy="44.66" r="0.40"/><circle class="grano" cx="23.53" cy="44.60" r="0.41"/><circle class="grano" cx="25.79" cy="44.22" r="0.38"/><circle class="grano" cx="27.28" cy="45.03" r="0.45"/><circle class="grano" cx="28.66" cy="44.34" r="0.39"/><circle class="grano" cx="29.06" cy="44.18" r="0.42"/><circle class="grano" cx="30.34" cy="44.51" r="0.30"/><circle class="grano" cx="31.76" cy="44.26" r="0.34"/><circle class="grano" cx="33.18" cy="44.49" r="0.35"/><circle class="grano" cx="34.55" cy="44.40" r="0.32"/><circle class="grano" cx="39.40" cy="44.35" r="0.33"/><circle class="grano" cx="40.99" cy="44.54" r="0.44"/><circle class="grano" cx="41.64" cy="44.25" r="0.33"/><circle class="grano" cx="43.64" cy="44.50" r="0.31"/><circle class="grano" cx="44.22" cy="45.02" r="0.38"/><circle class="grano" cx="45.70" cy="44.89" r="0.39"/><circle class="grano" cx="3.16" cy="46.05" r="0.38"/><circle class="grano" cx="4.72" cy="45.90" r="0.43"/><circle class="grano" cx="10.05" cy="45.34" r="0.37"/><circle class="grano" cx="11.06" cy="45.57" r="0.36"/><circle class="grano" cx="11.68" cy="45.88" r="0.34"/><circle class="grano" cx="14.19" cy="46.04" r="0.40"/><circle class="grano" cx="15.92" cy="45.47" r="0.30"/><circle class="grano" cx="17.26" cy="45.91" r="0.37"/><circle class="grano" cx="18.06" cy="46.13" r="0.39"/><circle class="grano" cx="19.64" cy="46.01" r="0.43"/><circle class="grano" cx="20.89" cy="45.21" r="0.32"/><circle class="grano" cx="22.30" cy="45.52" r="0.42"/><circle class="grano" cx="26.09" cy="45.20" r="0.39"/><circle class="grano" cx="27.49" cy="45.40" r="0.45"/><circle class="grano" cx="31.61" cy="45.31" r="0.28"/><circle class="grano" cx="34.43" cy="45.57" r="0.41"/><circle class="grano" cx="35.74" cy="46.23" r="0.41"/><circle class="grano" cx="36.97" cy="45.59" r="0.34"/><circle class="grano" cx="38.59" cy="45.56" r="0.31"/><circle class="grano" cx="39.23" cy="45.74" r="0.31"/><circle class="grano" cx="40.42" cy="45.36" r="0.43"/><circle class="grano" cx="42.30" cy="46.04" r="0.44"/><circle class="grano" cx="43.26" cy="45.33" r="0.27"/><circle class="grano" cx="44.11" cy="45.89" r="0.43"/><circle class="grano" cx="45.69" cy="45.93" r="0.35"/></g><g fill="none" stroke="#2690cc" stroke-linecap="round" stroke-linejoin="round"><g stroke-width="1.8" mask="url(#gr3m)" transform="translate(0.35 0.4)"><path d="M10.5 8.5H26.5L31.5 13.5V33"/><path d="M8.5 10.5H24.5L29.5 15.5V34.4"/><path d="M6.5 12.5H22.5L27.5 17.5V40.5H6.5Z"/><path d="M29.5 36.8C29.5 35.2 32.6 34 36.5 34C40.4 34 43.5 35.2 43.5 36.8V41.2C43.5 42.8 40.4 44 36.5 44C32.6 44 29.5 42.8 29.5 41.2Z"/><path d="M31.8 31.4C31.8 29.9 34.6 28.8 38 28.8C41.4 28.8 44.2 29.9 44.2 31.4V33.8"/><path d="M33.2 26.4C33.2 24.9 35.8 23.8 39 23.8C42.2 23.8 44.8 24.9 44.8 26.4C44.8 27.9 42.2 29 39 29C35.8 29 33.2 27.9 33.2 26.4Z"/></g><g stroke-width="1.05"><path d="M10.5 8.5H26.5L31.5 13.5V33"/><path d="M8.5 10.5H24.5L29.5 15.5V34.4"/><path d="M6.5 12.5H22.5L27.5 17.5V40.5H6.5Z"/><path d="M29.5 36.8C29.5 35.2 32.6 34 36.5 34C40.4 34 43.5 35.2 43.5 36.8V41.2C43.5 42.8 40.4 44 36.5 44C32.6 44 29.5 42.8 29.5 41.2Z"/><path d="M31.8 31.4C31.8 29.9 34.6 28.8 38 28.8C41.4 28.8 44.2 29.9 44.2 31.4V33.8"/><path d="M33.2 26.4C33.2 24.9 35.8 23.8 39 23.8C42.2 23.8 44.8 24.9 44.8 26.4C44.8 27.9 42.2 29 39 29C35.8 29 33.2 27.9 33.2 26.4Z"/></g><g stroke-width="0.756"><path d="M22.5 12.5V17.5H27.5"/><path d="M10 22H21"/><path d="M10 25.5H23"/><path d="M10 29H19"/><path d="M10 34.5H15"/><path d="M17 12.6V40.4"/><path d="M18.6 12.6V40.4"/><path d="M17.8 12.4C16.2 9.6 14 9.2 13.4 10.6C12.8 12 15.6 12.6 17.8 12.4C20 12.6 22.8 12 22.2 10.6C21.6 9.2 19.4 9.6 17.8 12.4"/><path d="M29.5 36.8C29.5 38.4 32.6 39.6 36.5 39.6C40.4 39.6 43.5 38.4 43.5 36.8"/><path d="M41.2 25.4C40.6 24.9 39.8 24.7 39 24.7C37.6 24.7 36.6 25.5 36.6 26.4C36.6 27.3 37.6 28.1 39 28.1C39.8 28.1 40.6 27.9 41.2 27.4"/><path d="M35.6 26H38.8"/><path d="M35.6 27H38.6"/></g></g><path d="M17 45.4H31M19.5 47.4H28.5" stroke="#2690cc" stroke-width="0.85" fill="none" stroke-linecap="round"/></svg>